<svg viewBox="0 0 350 350" fill="none" xmlns="http://www.w3.org/2000/svg">
  <path d="M350 87.496v70.821l-51.345 25.665v-70.821l-48.771-24.39-23.556-11.761-27.789-13.903L175 51.33l-51.328 25.665-20.948 10.486-51.159 25.577-.186.088-.05.015v51.11l-27.536-13.786L0 138.591V87.496l.05-.015 51.329-25.68 72.293-36.136 34.072-17.042L175 0l17.256 8.623 34.072 17.042L350 87.495Z" fill="#F7A600"/>
  <path d="M174.999 174.949v95.841l-51.328-25.665v-44.702l-44.453-22.218-4.098-2.053-23.793-11.88v-51.11l.051-.015 23.556 11.777 4.318 2.156h.017l44.402 22.204 2.591 1.305 48.737 24.36Z" fill="#F7A600"/>
  <path d="M349.996 211.115v51.389l-51.108 25.548-72.564 36.283L174.996 350v-51.345l51.328-25.665 21.236-10.603 51.091-25.563v-.234l-22.997-11.498-4.877-2.42-44.453-22.233-1.998-1.012h-.017l-49.313-24.654V79.211l47.01 23.51 4.318 2.155v44.408l44.453 22.234 4.691 2.332 23.183 11.585 28.162 14.08 23.183 11.6Z" fill="#F7A600"/>
  <path d="M175 298.654v51.345l-51.328-25.665L0 262.503v-70.542l51.328-25.665v70.527l72.344 36.181L175 298.654Z" fill="#F7A600"/>
</svg>
