<svg viewBox="0 0 503 121" fill="none" xmlns="http://www.w3.org/2000/svg">
  <path d="M105.822 30.193v24.439l-15.524 8.857v-24.44l-14.746-8.416-7.122-4.058-8.402-4.798-7.117-4.064-15.519 8.857-6.334 3.618-15.467 8.826-.057.03-.015.006v17.637l-8.325-4.758L0 47.825V30.193l.015-.005 15.52-8.861 21.857-12.47 10.302-5.881L52.91 0l5.217 2.976 10.302 5.88 37.392 21.337Z" fill="#F7A600"/>
  <path d="M52.914 60.372v33.073l-15.519-8.857V69.163l-13.44-7.668-1.239-.708-7.194-4.1V39.052l.016-.006 7.122 4.064 1.305.744h.006l13.424 7.662.784.45 14.735 8.407Z" fill="#F7A600"/>
  <path d="M105.819 72.852v17.734l-15.452 8.816-21.94 12.52-15.519 8.857v-17.718l15.52-8.857 6.42-3.659 15.447-8.82v-.082l-6.953-3.968-1.475-.835-13.44-7.672-.604-.35h-.005l-14.91-8.506V27.335l14.214 8.112 1.305.744v15.325l13.44 7.672 1.419.805 7.01 3.998 8.514 4.858 7.009 4.003Z" fill="#F7A600"/>
  <path d="M52.91 103.06v17.718l-15.518-8.856L0 90.585V66.242l15.519-8.856v24.337L37.392 94.21l15.519 8.851ZM158.229 35.058c4.389 0 7.894 1.101 10.293 3.507 2.399 2.405 3.498 5.92 3.499 10.32v.943c0 3.037-.494 5.622-1.543 7.698l.004.005a9.662 9.662 0 0 1-2.817 3.407c.38.208.749.432 1.103.68a9.632 9.632 0 0 1 2.59 2.745h.004c.71 1.092 1.238 2.366 1.602 3.797.367 1.444.544 3.067.544 4.859v2.613c0 4.389-1.098 7.893-3.497 10.293-2.4 2.4-5.905 3.498-10.293 3.498h-29.651V35.058h28.162Zm60.934 0c1.178 0 2.301.238 3.353.721h-.005a8.574 8.574 0 0 1 2.721 1.82l.563.602c.529.63.96 1.341 1.293 2.128l.295.799c.254.81.381 1.655.381 2.531v7.875h-9.762V44.82H192.09v34.84h25.912V69.354h-14.117V59.59h23.879v21.23a8.565 8.565 0 0 1-.671 3.353l-.005.013a8.68 8.68 0 0 1-1.842 2.717 8.581 8.581 0 0 1-2.758 1.838l.005.004a8.316 8.316 0 0 1-3.33.677h-28.234a8.57 8.57 0 0 1-3.353-.672l-.014-.005a8.69 8.69 0 0 1-4.559-4.558l-.004-.014a8.566 8.566 0 0 1-.672-3.353V43.66a8.31 8.31 0 0 1 .676-3.33 8.185 8.185 0 0 1 1.855-2.73 8.71 8.71 0 0 1 2.691-1.825l.816-.312a8.213 8.213 0 0 1 2.564-.404h28.234Zm56.47 0c1.178 0 2.3.238 3.352.721h-.005a8.567 8.567 0 0 1 2.722 1.82l.563.602c.529.63.96 1.34 1.293 2.128l.295.799c.254.81.38 1.655.38 2.531v7.875h-9.761V44.82H248.56v34.84h25.912V69.354h-14.118V59.59h23.879v21.23a8.566 8.566 0 0 1-.671 3.353l-.004.013a8.698 8.698 0 0 1-1.842 2.717 8.583 8.583 0 0 1-2.758 1.838l.004.004a8.315 8.315 0 0 1-3.329.677h-28.236a8.567 8.567 0 0 1-3.351-.672l-.014-.005a8.706 8.706 0 0 1-4.559-4.558l-.005-.014a8.566 8.566 0 0 1-.671-3.353V43.66a8.31 8.31 0 0 1 .676-3.33 8.156 8.156 0 0 1 1.855-2.73 8.687 8.687 0 0 1 2.691-1.825l.816-.312a8.211 8.211 0 0 1 2.562-.404h28.236ZM139.685 79.806H159.5c1.812 0 2.846-.43 3.402-1.017.58-.612.989-1.7.989-3.52V71.24c0-1.85-.411-2.925-.975-3.507-.555-.57-1.596-.993-3.416-.993h-19.815v13.066Zm0-22.647h18.79c1.427-.058 2.297-.396 2.812-.849l.204-.204.191-.254c.432-.644.721-1.658.721-3.193v-3.411c0-1.849-.412-2.947-.989-3.557-.556-.587-1.59-1.016-3.402-1.016h-18.327v12.484Z" fill="#F7A600"/>
  <path d="M503 88.26h-7.149v-31.5h-19.924v31.5h-7.114V49.61h7.114v6.823a6.997 6.997 0 0 1 .653-2.65 7.05 7.05 0 0 1 1.524-2.177 6.911 6.911 0 0 1 2.25-1.452 6.837 6.837 0 0 1 2.722-.544h12.775a6.8 6.8 0 0 1 2.794.58 6.615 6.615 0 0 1 2.25 1.525 6.62 6.62 0 0 1 1.524 2.25c.387.87.581 1.802.581 2.794V88.26ZM456.51 49.61v38.65h-7.149V49.61h7.149Zm-7.512-14.879h7.875v7.44h-7.875v-7.44ZM404.359 71.385c0-.992.182-1.912.545-2.758a7.872 7.872 0 0 1 1.524-2.287 7.01 7.01 0 0 1 2.286-1.524 6.718 6.718 0 0 1 2.758-.58h18.437v-7.477h-23.336v-7.15h23.336c.991 0 1.923.194 2.794.581a6.615 6.615 0 0 1 2.25 1.525 6.62 6.62 0 0 1 1.524 2.25c.387.87.581 1.802.581 2.794V88.26h-7.149v-6.532a6.684 6.684 0 0 1-.726 2.54 7.588 7.588 0 0 1-1.597 2.105 7.244 7.244 0 0 1-2.178 1.38 6.791 6.791 0 0 1-2.613.507h-11.323a7.102 7.102 0 0 1-2.758-.544 7.869 7.869 0 0 1-2.286-1.524 7.872 7.872 0 0 1-1.524-2.287 7.19 7.19 0 0 1-.545-2.794v-9.726Zm7.113 9.726h18.437v-9.726h-18.437v9.726ZM392.455 88.26h-7.149v-31.5h-19.924v31.5h-7.113V34.732h7.113v21.702a6.997 6.997 0 0 1 .653-2.649 7.05 7.05 0 0 1 1.524-2.178 6.911 6.911 0 0 1 2.25-1.451 6.837 6.837 0 0 1 2.722-.544h12.775a6.8 6.8 0 0 1 2.794.58 6.615 6.615 0 0 1 2.25 1.524 6.62 6.62 0 0 1 1.524 2.25c.388.871.581 1.803.581 2.795v31.5ZM303.978 43.66c0-1.017.193-1.972.58-2.867a7.02 7.02 0 0 1 1.597-2.36 7.527 7.527 0 0 1 2.359-1.596 7.029 7.029 0 0 1 2.903-.617h28.235c1.016 0 1.972.205 2.867.617a7.42 7.42 0 0 1 2.395 1.596 7.005 7.005 0 0 1 1.597 2.36c.387.895.581 1.85.581 2.867v6.713h-7.44V43.66h-28.235v37.162h28.235v-6.678h7.44v6.678a7.409 7.409 0 0 1-.581 2.903 7.42 7.42 0 0 1-3.992 3.956 7.145 7.145 0 0 1-2.867.58h-28.235a7.404 7.404 0 0 1-2.903-.58 7.528 7.528 0 0 1-3.956-3.956 7.408 7.408 0 0 1-.58-2.903V43.659Z" fill="white"/>
</svg>
